<svg xmlns="http://www.w3.org/2000/svg" width="123" height="22" viewBox="0 0 123 22">
    <g fill="none" fill-rule="evenodd">
        <path d="M-3-8h129v36H-3z"/>
        <path fill="#071638" fill-rule="nonzero" d="M71.194 0c.24 0 .332.09.332.268 0 .13-.025.308-.069.592-.09.457-.468 2.045-.468 3.914 0 1.672.225 3.39.421 5.15 2.233-2.199 4.105-3.326 4.954-3.326.132 0 .29.026.29.13 0 .138-.158.336-.358.558-.51.592-.82 1.448-.82 2.484 0 1.362.731 2.55 1.981 2.55 1.205 0 1.85-1.075 1.85-2.154 0-.241 0-.484-.041-.705h-.292c-1.028 0-2.184-.484-2.184-1.649 0-.704.488-1.125 1.184-1.148.71-.017 1.603.622 2.023 1.851.827-.16 1.496-.374 2.212-.815V5.412c0-2.814 1.18-5.19 2.717-5.19.829 0 1.362.656 1.362 1.847 0 2.068-.866 3.958-2.273 5.5v3.08c0 .287.005.44.045.44.09 0 .335-.48.623-1.01.425-.794.958-1.654 1.359-2.292.292-.46.734-1.189 1.54-1.189.582 0 1.004.418 1.004 1.452v3.7c0 .108.026.151.066.151a.31.31 0 0 0 .134-.133c.292-.393 1.85-2.791 2.79-4.355.376-.634.848-.815 1.34-.815.58 0 1 .418 1 1.452v2.816c0 .136.024.223.05.223.02 0 .086-.042.152-.178.424-.79 1.313-2.396 2.05-3.498.407-.616.824-.815 1.315-.815.586 0 1.006.418 1.006 1.452v3.851c0 .135.025.156.067.156.023 0 .09-.07.135-.132.468-.462 2.608-3.875 3.01-5.042.11-.303.178-.457.332-.457.186 0 .246.28.338.523.249.596.737 1.366 1.14 2.248.822-.726 1.825-1.454 2.674-1.895.647-.328 1.587-.704 2.43-.704.134 0 .292.026.292.13 0 .202-.158.336-.361.558-.511.592-.821 1.448-.821 2.484 0 1.362.733 2.55 1.981 2.55 1.206 0 1.854-1.075 1.854-2.154 0-.241.023-.553-.02-.773a1.534 1.534 0 0 1-.355.026c-.452 0-.765-.026-1.1-.157-.597-.224-1.043-.727-1.043-1.45 0-.704.486-1.125 1.182-1.148.688-.017 1.516.552 1.958 1.673.292-.132.669-.35 1.097-.66.668-.461 1.134-1.079 2.05-1.079.87 0 1.094.64 1.094 1.452v2.816c0 .155.017.223.065.223.047 0 .112-.13.16-.223.42-.788 1.2-2.35 1.96-3.453.425-.616.824-.815 1.312-.815.602 0 1.076.418 1.076 1.452v3.851c0 .135.063.24.155.24.244 0 .38-.19.512-.328.668-.724.782-.923.981-.923.177 0 .356.112.356.31a.518.518 0 0 1-.063.218c-.894 1.495-1.406 2.466-2.435 2.466-.984 0-1.426-.639-1.426-1.605V8.844c0-.285-.043-.352-.134-.352-.067 0-.158.135-.27.311-.467.768-1.54 2.792-2.27 4.31-.202.417-.561.771-1.072.771-.558 0-.778-.331-.778-1.034V8.535c0-.286-.094-.44-.296-.44-.153 0-.358.11-.62.309-.315.245-.72.551-1.183.752.042.263.062.35.062.983 0 2.181-1.4 3.745-3.408 3.745-2.075 0-3.147-1.763-3.147-3.611 0-.965.313-1.714.692-2.241-.803.197-1.897 1.055-2.81 1.937.2.527.355 1.078.355 1.605 0 1.34-.935 2.31-1.96 2.31-.606 0-1.18-.487-1.18-1.302 0-.769.53-1.493 1.071-2.13a9.762 9.762 0 0 0-.671-1.234c-.646 1.083-1.72 2.77-2.455 3.72-.399.504-.8.946-1.43.946-.467 0-.997-.265-.997-1.277v-3.74c0-.288-.025-.396-.112-.396-.07 0-.18.156-.294.332a74.807 74.807 0 0 0-2.296 4.31c-.202.417-.537.771-1.05.771-.557 0-.777-.331-.777-1.034V8.909c0-.282-.05-.33-.136-.33-.087 0-.2.114-.29.265-.489.838-1.717 2.772-2.873 4.401-.296.398-.583.64-1.03.64-.47 0-1.004-.266-1.004-1.278V8.844c0-.265-.042-.373-.083-.373-.183 0-.406.459-.806 1.165-.515.905-1.364 2.421-1.675 3.085-.377.81-.644 1.163-1.164 1.163-.377 0-.776-.224-.776-.793V8.67c-.62.368-1.272.548-1.987.68.025.263.045.508.045.79 0 2.18-1.472 3.744-3.41 3.744-2.076 0-3.148-1.763-3.148-3.611 0-.458.092-.943.227-1.406-.317.11-1.584 1.272-2.41 2.135.09 1.01.133 2.023.133 3.034 0 3.39-1.671 7.964-3.9 7.964-1.07 0-1.407-1.081-1.407-2.509 0-1.98.935-4.201 2.119-6.072-.58-.55-1.072-1.055-1.47-1.583a5.588 5.588 0 0 0-1.004-.108c-.604 0-1.319.152-2.01.33-.043 1.075-.267 1.826-.646 1.826-.248 0-.313-.287-.313-.661 0-.262-.045-.574-.045-.927-.4.09-.8.156-1.155.156-1.944 0-3.483-.572-3.483-1.715 0-.598.404-1.19 1.744-1.19 1.134 0 2 .332 2.76 1.081-.154-1.036-.578-1.472-.736-1.698-.067-.11-.067-.154-.067-.196 0-.085.267-.219.538-.351.244-.134.464-.219.648-.219.062 0 .128.02.176.065.403.44.629 1.74.629 2.682v.443c.416-.09 1.088-.265 1.799-.265.183 0 .379 0 .628.043-.67-1.076-1.048-2.311-1.048-4.047C65.416 2.84 69.386 0 71.194 0zM5.779 0c.24 0 .336.09.336.268 0 .13-.028.308-.073.592-.09.457-.464 2.045-.464 3.914 0 1.672.224 3.39.422 5.15 2.232-2.199 4.103-3.326 4.95-3.326.136 0 .293.026.293.13 0 .138-.157.336-.36.558-.513.592-.822 1.448-.822 2.484 0 1.362.738 2.55 1.986 2.55 1.201 0 1.847-1.075 1.847-2.154 0-.241 0-.484-.043-.705h-.29c-1.024 0-2.184-.484-2.184-1.649 0-.704.493-1.125 1.182-1.148.711-.017 1.605.622 2.027 1.851.827-.16 1.497-.374 2.212-.815V5.412c0-2.814 1.179-5.19 2.721-5.19.824 0 1.357.656 1.357 1.847 0 2.068-.871 3.958-2.274 5.5v3.08c0 .287.005.44.042.44.09 0 .337-.48.629-1.01.422-.794.955-1.654 1.358-2.292.293-.46.737-1.189 1.541-1.189.577 0 1 .418 1 1.452v3.7c0 .108.025.151.07.151a.366.366 0 0 0 .134-.133c.29-.393 1.85-2.791 2.785-4.355.382-.634.847-.815 1.34-.815.58 0 1.006.418 1.006 1.452v2.816c0 .136.018.223.04.223.023 0 .09-.042.158-.178.422-.79 1.319-2.396 2.053-3.498.401-.616.824-.815 1.316-.815.576 0 1 .418 1 1.452v3.851c0 .135.025.156.073.156.021 0 .086-.07.13-.132.469-.462 2.611-3.875 3.011-5.042.11-.303.178-.457.337-.457.134 0 .204.158.268.339l.064.184c.247.596.737 1.366 1.138 2.248.826-.726 1.828-1.454 2.68-1.895.645-.328 1.579-.704 2.429-.704.135 0 .288.026.288.13 0 .202-.153.336-.359.558-.51.592-.82 1.448-.82 2.484 0 1.362.733 2.55 1.985 2.55 1.203 0 1.85-1.075 1.85-2.154 0-.241.021-.553-.026-.773-.086.026-.219.026-.354.026-.448 0-.761-.026-1.094-.157-.6-.224-1.048-.727-1.048-1.45 0-.704.49-1.125 1.184-1.148.691-.017 1.515.552 1.964 1.673.288-.132.666-.35 1.09-.66.67-.461 1.137-1.079 2.052-1.079.872 0 1.095.64 1.095 1.452v2.816c0 .155.02.223.066.223.044 0 .108-.13.155-.223.422-.788 1.203-2.35 1.962-3.453.423-.616.826-.815 1.316-.815.602 0 1.07.418 1.07 1.452v3.851c0 .135.069.24.157.24.248 0 .38-.19.514-.328.668-.724.78-.923.982-.923.18 0 .353.112.353.31a.5.5 0 0 1-.061.218c-.899 1.495-1.409 2.466-2.437 2.466-.978 0-1.425-.639-1.425-1.605V8.844c0-.285-.046-.352-.136-.352-.064 0-.155.135-.267.311-.467.768-1.535 2.792-2.273 4.31-.2.417-.56.771-1.07.771-.556 0-.782-.331-.782-1.034V8.535c0-.286-.087-.44-.287-.44-.16 0-.359.11-.625.309-.313.245-.716.551-1.183.752.042.263.067.35.067.983 0 2.181-1.407 3.745-3.414 3.745-2.076 0-3.145-1.763-3.145-3.611 0-.965.311-1.714.695-2.241-.807.197-1.902 1.055-2.811 1.937.2.527.353 1.078.353 1.605 0 1.34-.936 2.31-1.96 2.31-.603 0-1.183-.487-1.183-1.302 0-.769.537-1.493 1.073-2.13a9.46 9.46 0 0 0-.672-1.234c-.648 1.083-1.72 2.77-2.45 3.72-.402.504-.808.946-1.427.946-.471 0-1.007-.265-1.007-1.277v-3.74c0-.288-.02-.396-.113-.396-.066 0-.179.156-.288.332-.47.789-1.56 2.792-2.301 4.31-.2.417-.533.771-1.043.771-.56 0-.784-.331-.784-1.034V8.909c0-.282-.045-.33-.132-.33-.09 0-.2.114-.29.265-.488.838-1.716 2.772-2.877 4.401-.29.398-.582.64-1.029.64-.463 0-.998-.266-.998-1.278V8.844c0-.265-.048-.373-.09-.373-.18 0-.402.459-.807 1.165-.512.905-1.357 2.421-1.672 3.085-.376.81-.643 1.163-1.159 1.163-.38 0-.778-.224-.778-.793V8.67c-.623.368-1.276.548-1.986.68.02.263.042.508.042.79 0 2.18-1.47 3.744-3.412 3.744-2.073 0-3.145-1.763-3.145-3.611 0-.458.09-.943.222-1.406-.31.11-1.582 1.272-2.404 2.135.088 1.01.129 2.023.129 3.034C6.244 17.426 4.572 22 2.34 22 1.273 22 .936 20.919.936 19.491c0-1.98.943-4.201 2.119-6.072C1.118 11.55 0 10.096 0 7.085 0 2.84 3.97 0 5.78 0zM69.92 12.827c-1.27 1.606-2.544 3.85-2.498 6.488.022.81.424 1.277.891 1.277 1.23.02 1.943-2.445 1.943-4.553 0-.9-.163-2.047-.336-3.212zm-65.417 0c-1.268 1.606-2.54 3.85-2.494 6.488.02.81.418 1.277.892 1.277 1.228.02 1.94-2.445 1.94-4.553 0-.9-.157-2.047-.338-3.212zm32.565-1.5c-.243.333-.532.86-.532 1.191 0 .31.179.507.354.507.247 0 .382-.352.382-.705 0-.308-.068-.614-.204-.992zm65.416 0c-.246.333-.54.86-.54 1.191 0 .31.184.507.36.507.246 0 .38-.352.38-.705 0-.308-.064-.614-.2-.992zM5.22.754c-1.18 0-3.477 2.594-3.477 6.332 0 2.642.712 4.18 1.851 5.547l.714-.95c-.246-1.56-.54-3.103-.54-4.27 0-1.958.405-3.584.83-4.726.4-1.102.712-1.716.712-1.85 0-.064-.02-.083-.09-.083zm65.416 0c-1.18 0-3.482 2.594-3.482 6.332 0 2.642.717 4.18 1.853 5.547l.716-.95c-.244-1.56-.541-3.103-.541-4.27 0-1.958.404-3.584.825-4.726.404-1.102.713-1.716.713-1.85 0-.064-.02-.083-.084-.083zm-9.945 9.61c-.446 0-.6.178-.6.485 0 .48.642.812 1.515.812.397 0 .626 0 1.002-.044-.626-.768-1.202-1.254-1.917-1.254zM44.94 7.66c-.173 0-.31.106-.31.306 0 .39.447.64.98.64.09 0 .225-.027.314-.027-.249-.613-.691-.92-.984-.92zm65.416 0c-.18 0-.311.106-.311.306 0 .39.445.64.976.64.093 0 .227-.027.314-.027-.245-.613-.692-.92-.98-.92zm-97.662 0c-.18 0-.312.106-.312.306 0 .438.444.613 1.268.613-.246-.613-.67-.92-.956-.92zm65.41 0c-.177 0-.313.106-.313.306 0 .438.446.613 1.27.613-.24-.613-.668-.92-.958-.92zM19.45 1.015c-.2 0-.848.504-.848 3.783v1.606c.69-.928 1.249-2.62 1.249-3.911 0-1.258-.043-1.478-.4-1.478zm65.412 0c-.204 0-.847.504-.847 3.783v1.606c.688-.928 1.248-2.62 1.248-3.911 0-1.258-.045-1.478-.401-1.478z"/>
    </g>
</svg>
