<svg xmlns="http://www.w3.org/2000/svg" width="65" height="18" viewBox="0 0 65 18">
    <g fill="none" fill-rule="evenodd">
        <path d="M-32-9H97v36H-32z"/>
        <path fill="#071638" d="M43.769 0v3.871h-5.56v2.472h5.56v3.725h-5.56v3.419h5.56v3.882H30.054v-1.125h-.044A3.944 3.944 0 0 1 26.723 18c-3.077 0-5.32-2.482-5.67-5.36H13c0 1.282 1.07 2.364 2.31 2.364 1.07 0 1.475-.227 2.01-.99h3.956c-1.036 2.541-2.994 3.936-5.966 3.936-3.534 0-6.303-2.542-6.303-6.166 0-.605.073-1.18.21-1.716h-4.6v7.301H0V0h10.266v3.871h-5.65v2.472h5.177v2.276c1.033-1.831 3.011-2.955 5.516-2.955 3.084 0 5.165 1.623 5.971 4.27.708-2.402 2.723-4.22 5.398-4.22 1.305 0 2.43.36 3.332 1.394h.044V0h13.715zm5.178 6.343l2.431 2.679 2.341-2.68h4.998l-4.885 5.492 4.952 5.535h-5.2l-2.408-2.7-2.387 2.7h-5.02l4.907-5.513-4.907-5.513h5.178zm13.964 6.895c1.112 0 2.089.832 2.089 2.065s-.977 2.066-2.089 2.066c-1.11 0-2.089-.832-2.089-2.066 0-1.233.98-2.065 2.09-2.065zm0 .333c-.977 0-1.688.733-1.688 1.732 0 1 .711 1.732 1.689 1.732.978 0 1.688-.732 1.688-1.732s-.71-1.732-1.688-1.732zm.101.455c.532 0 .778.234.778.688 0 .279-.19.501-.433.533v.011c.21.034.288.223.333.568.033.22.078.61.156.7h-.434c-.1-.234-.089-.568-.167-.845-.065-.21-.177-.29-.421-.29h-.356v1.135h-.367v-2.5h.911zm-.09.335h-.454v.71h.454c.356 0 .457-.19.457-.356 0-.2-.1-.354-.457-.354zM27.585 8.81c-1.62 0-2.432 1.5-2.432 3.059 0 1.458.932 2.855 2.432 2.855 1.641 0 2.35-1.377 2.35-2.855 0-1.56-.669-3.059-2.35-3.059zm-12.276-.515c-1.07 0-1.925.721-2.182 1.824h4.384c-.213-1.125-1.026-1.824-2.202-1.824z"/>
    </g>
</svg>
