<svg xmlns="http://www.w3.org/2000/svg" width="84" height="22" viewBox="0 0 84 22">
    <path fill="#071638" fill-rule="nonzero" d="M34.035 17.15c.405.21.742.578.846 1.028.066.293.073.595.074.895v.224c-.003.474.02.952-.059 1.42a1.522 1.522 0 0 1-.599.919c-.544.415-1.325.474-1.94.183-.374-.188-.704-.5-.839-.904-.121-.336-.1-.699-.133-1.049-.015-.536-.01-1.077.071-1.609.118-.646.69-1.14 1.321-1.266.421-.084.873-.035 1.258.16zm20.01.155c.22.172.422.385.524.65.134.298.117.63.156.948.009.393.012.788-.002 1.182-.04.306-.021.63-.155.916-.1.252-.29.456-.498.625-.696.543-1.8.494-2.422-.144-.304-.277-.456-.687-.468-1.092-.045-.465-.02-.932-.027-1.399.019-.378.019-.775.196-1.12.242-.47.72-.795 1.237-.89.502-.086 1.046.014 1.458.324zm5.2-.296c.08.002.07.098.073.154v2.964c.01.444-.093.91-.385 1.256-.473.565-1.306.743-1.996.53a1.616 1.616 0 0 1-1.05-.916c-.146-.326-.145-.691-.147-1.041 0-.93.002-1.86 0-2.791a.222.222 0 0 1 .04-.155c.238-.021.48-.004.72-.006.03.168.018.34.02.51-.001.872 0 1.743-.002 2.615-.01.254.007.522.152.74.35.582 1.32.593 1.692.03.2-.299.198-.667.196-1.016v-.148c.008-.908-.017-1.818.012-2.725.224-.01.45-.019.675-.001zm-14.509.131c.361.173.648.487.801.855.064.162.14.329.125.508-.24-.002-.48.015-.72-.007-.102-.163-.132-.368-.275-.507-.385-.48-1.223-.462-1.581.041-.261.367-.212.844-.228 1.27.016.505-.055 1.039.154 1.514.297.583 1.182.659 1.617.194.286-.275.34-.705.28-1.08-.333 0-.668-.002-1.002.001-.034-.212-.057-.44 0-.648.59-.01 1.186-.017 1.778.005-.016.56.072 1.145-.138 1.68-.275.68-1.036 1.087-1.757 1.028-.629-.011-1.252-.385-1.523-.958-.222-.506-.15-1.07-.163-1.606.006-.548-.056-1.14.227-1.636.19-.313.485-.563.823-.704a2 2 0 0 1 1.582.05zm-15.089.07c.438.25.755.711.788 1.22.048.673.047 1.349.006 2.022-.02.39-.178.778-.468 1.045a1.79 1.79 0 0 1-1.244.498c-.681.038-1.382-.356-1.663-.983-.21-.516-.146-1.085-.158-1.628v-.359c0-.422.017-.851.228-1.225.255-.42.693-.726 1.18-.814a1.907 1.907 0 0 1 1.331.223zM0 4.397c.116.007.232.007.348.007 2.1-.002 4.198.004 6.296-.003.036.216.024.434.024.65v4.314c.002.152-.017.308.025.456.067.012.136.014.205.015l4.978-.004c.066 0 .135.003.199.025.03.197.009.398.013.597-.004.2.015.401-.009.6-.034.056-.103.043-.158.05-2.11 0-4.221-.002-6.332 0a1.094 1.094 0 0 1-.2-.02c-.034-.164-.016-.334-.018-.5l.001-4.622a1.795 1.795 0 0 0-.032-.273c-1.3.005-2.599 0-3.898.002-.063.003-.132 0-.185.04-.028.163-.012.33-.015.496v13.638c.001.265-.006.532.013.796 1.751.016 3.502.004 5.253.007.047 0 .093.006.138.017.038.129.02.266.023.4-.009.29.018.58-.022.87-2.215-.002-4.431.004-6.647-.003V4.398zM36.781 17.01c.027.047.04.098.037.154-.001.745-.004 1.49 0 2.235.045-.026.097-.043.131-.085.55-.684 1.11-1.362 1.66-2.046.091-.092.152-.25.294-.265.274-.005.549-.007.823.004-.031.06-.059.124-.105.176l-1.347 1.62c-.048.065-.138.144-.061.223.5.853 1.004 1.704 1.505 2.557.065.117.16.226.172.366-.275.005-.55-.003-.824.005a1.223 1.223 0 0 1-.191-.276c-.393-.708-.81-1.402-1.194-2.114-.05.019-.102.036-.133.082-.203.248-.408.494-.615.738-.05.064-.117.128-.115.216-.007.395.001.79-.001 1.185-.009.056.018.144-.06.16-.23.015-.46.005-.69-.002a3.61 3.61 0 0 1-.018-.485l.001-3.945c0-.17-.012-.343.027-.51.235.002.47-.015.704.007zM48.635 17c.338-.007.69.046.978.234.74.44.861 1.603.247 2.197-.156.16-.365.25-.566.34.148.386.376.737.554 1.109.17.356.392.69.53 1.06-.26.017-.52.012-.781.01-.095.003-.133-.1-.172-.167l-.812-1.63c-.056-.094-.086-.23-.192-.275a9.683 9.683 0 0 0-.856.004c-.044.686.012 1.375-.03 2.061-.243.007-.486.02-.728-.001-.04-.107-.02-.223-.025-.334.001-1.467.002-2.934 0-4.401.003-.068-.007-.141.033-.2.606-.016 1.213 0 1.82-.007zm13.802 0c.44-.002.894.162 1.189.497.417.478.47 1.215.172 1.767a1.424 1.424 0 0 1-.964.695c-.509.113-1.033.032-1.548.07-.01.635.011 1.27-.011 1.906a4.97 4.97 0 0 1-.743.007c-.02-1.331-.002-2.663-.008-3.994.006-.314-.015-.628.012-.941.633-.014 1.267-.002 1.901-.007zm-37.986 0c.391-.001.797.113 1.085.388.462.462.517 1.3.053 1.782-.087.091-.21.149-.273.262.339.165.601.494.642.874.039.345.02.72-.17 1.022a1.316 1.316 0 0 1-.9.587c-.318.055-.642.03-.962.036-.48-.004-.961.007-1.44-.006-.032-.721-.006-1.445-.014-2.167l-.001-2.617c-.002-.067-.002-.184.098-.159.627-.003 1.255 0 1.882-.002zM11.004 4.411c2.164.006 4.327-.005 6.491.005.007.066.013.133.015.2v16.688c-.002.213.007.427-.013.64-1.287.012-2.575.01-3.863.007h-1.932c-.299-.006-.598.016-.896-.015-.013-1.75 0-3.501-.007-5.252a.87.87 0 0 0-.032-.157l-2.612.003H5.542a.192.192 0 0 1-.187-.083c.041-.37.01-.743.016-1.113.005-.093.11-.066.173-.075h6.154c.122.002.246-.012.365.018.029.057.016.125.02.187-.003 1.424 0 2.847 0 4.27.01.313-.025.628.02.94 1.307.005 2.614-.001 3.922.003.059-.005.125.008.178-.025.026-.16.01-.322.013-.482l.001-14.288c.002-.07-.02-.136-.04-.201-1.681.01-3.363 0-5.044.005-.104-.002-.211.01-.313-.02-.045-.17-.009-.353-.019-.528.011-.236-.025-.475.016-.708a.764.764 0 0 1 .187-.02zm17.442 13.261a.928.928 0 0 0-.718.711c-.084.475-.056.959-.061 1.439-.001.206.02.41.04.615.03.307.204.605.484.748.23.114.502.175.753.09a.94.94 0 0 0 .715-.778c.063-.469.033-.944.041-1.416-.014-.347.007-.727-.198-1.027-.225-.331-.673-.484-1.056-.382zm4.494 0a.934.934 0 0 0-.737.799 9.65 9.65 0 0 0-.006 1.967c.033.39.32.753.71.835.323.1.693.006.943-.216.205-.175.296-.446.317-.708.037-.582.04-1.167 0-1.75-.02-.313-.166-.635-.444-.8-.23-.14-.521-.206-.783-.128zm19.739.004c-.393.082-.687.445-.724.839-.042.435-.03.873-.03 1.31.015.292-.011.597.097.875.151.436.666.695 1.11.589a.935.935 0 0 0 .692-.52c.146-.307.098-.659.134-.987.04-.364-.016-.729-.026-1.093-.01-.229-.054-.466-.193-.654a1 1 0 0 0-1.06-.359zm-29.437 2.115c-.004.484-.005.967 0 1.45.27.049.544.016.816.025.282-.006.594.041.842-.126.425-.263.425-.98-.003-1.24-.238-.146-.522-.14-.795-.137h-.135c-.241.008-.486-.02-.725.028zm38.038-2.078c.007.47.004.942.003 1.413v.08c.002.041.013.08.056.1.248.018.497.002.746.007.258-.002.542.025.77-.121.495-.282.487-1.114-.011-1.389-.254-.16-.564-.104-.847-.113-.24.008-.48-.02-.717.023zM48.68 17.69c-.374.004-.748-.009-1.121.01-.017.499-.01.999-.003 1.499l.258.02h.519c.279-.004.586.03.83-.136.388-.241.431-.848.117-1.165a.793.793 0 0 0-.6-.228zm-24.578 0c-.286.006-.573-.015-.858.018-.007.455-.004.91-.002 1.364.313.045.63.014.944.022.228.007.467-.015.664-.138.4-.247.389-.936-.03-1.16-.214-.138-.476-.102-.718-.106zM45.015 4.254a3.86 3.86 0 0 1 1.57.272c.517.215.956.575 1.35.965.063.06.11.133.151.21-.25.237-.497.48-.756.707-.048.047-.132.048-.168-.013-.412-.455-.922-.864-1.541-.98-.63-.115-1.303-.075-1.893.187-.628.273-1.116.81-1.394 1.427-.288.65-.334 1.373-.324 2.075-.012.754.032 1.539.375 2.226.321.666.907 1.212 1.622 1.428.239.087.494.107.745.142.293.039.587-.023.878-.06.636-.13 1.175-.553 1.58-1.044.118.022.195.116.279.193.18.169.365.335.54.51.042.035.056.106.011.146-.43.455-.923.87-1.512 1.104-.616.248-1.294.28-1.95.24a3.925 3.925 0 0 1-2.104-.739c-.618-.447-1.068-1.098-1.335-1.807-.29-.744-.38-1.548-.392-2.34.02-.69.084-1.385.303-2.041.234-.728.64-1.415 1.232-1.909.75-.639 1.757-.93 2.733-.899zm35.78.04c.661.097 1.301.364 1.804.808.667.577 1.06 1.411 1.25 2.26.155.684.165 1.39.141 2.087-.503.038-1.01.006-1.514.016h-2.664c-.36-.01-.722.02-1.08-.017-.009-.325-.017-.652.004-.977 1.145-.02 2.29-.002 3.435-.008.195-.007.395.02.588-.028-.017-.492-.063-.992-.253-1.452a2.447 2.447 0 0 0-1.436-1.485c-.803-.302-1.768-.205-2.46.317-.567.416-.902 1.084-1.027 1.763-.12.662-.088 1.337-.086 2.006.035.77.185 1.564.617 2.217.277.412.682.737 1.149.908.367.145.766.178 1.157.202.382-.023.771-.044 1.135-.17.545-.176 1.005-.537 1.403-.937.302.218.584.466.86.716-.013.068-.072.112-.117.16-.398.386-.845.73-1.354.957-.763.348-1.621.402-2.447.35-.868-.059-1.745-.373-2.37-.994-.655-.634-1-1.519-1.156-2.401-.032-.278-.096-.552-.097-.832-.059-1.101.013-2.238.449-3.265.314-.764.87-1.443 1.608-1.832.748-.402 1.63-.478 2.461-.37zM36.67 4.41c.586.14 1.157.42 1.561.876.52.568.703 1.365.699 2.117-.006 2.156.01 4.313-.008 6.47-.384.02-.77.01-1.154.008-.014-.007-.043-.02-.057-.028-.022-.276 0-.553-.01-.83a.556.556 0 0 0-.173.106 3.103 3.103 0 0 1-1.078.664c-.472.169-.978.207-1.476.208-.664.004-1.348-.026-1.97-.28a2.425 2.425 0 0 1-1.374-1.413 3.127 3.127 0 0 1 .004-2.186c.23-.59.72-1.058 1.295-1.31.665-.302 1.41-.37 2.131-.35.46.004.92-.01 1.38.006a9.67 9.67 0 0 1 0 .968c-.722.021-1.446-.018-2.166.055-.417.07-.847.2-1.155.503-.34.331-.473.825-.45 1.289 0 .449.168.92.532 1.2.377.302.87.38 1.336.437.556.027 1.12.023 1.662-.117.439-.124.857-.37 1.132-.737.295-.418.32-.946.362-1.438 0-1.031-.003-2.064 0-3.095 0-.16-.028-.317-.044-.475-.043-.476-.26-.95-.646-1.245-.305-.247-.693-.357-1.072-.426a6.41 6.41 0 0 0-1.442-.017c-.634.06-1.255.356-1.643.87-.07.07-.113.199-.23.187-.275-.237-.543-.483-.813-.726.23-.363.56-.66.917-.897.552-.357 1.213-.496 1.861-.542.699-.023 1.408-.031 2.089.148zm27.953.637c.54.441.918 1.056 1.145 1.71a6.01 6.01 0 0 1 .318 1.912c.003.265.03.532-.013.795-1.741.002-3.482-.004-5.223.003-.05-.33-.027-.67-.013-1.002 1.159-.007 2.318-.001 3.478-.003.16-.003.321.01.482-.01.088-.034.04-.15.047-.221-.043-.806-.27-1.659-.877-2.228-.701-.674-1.799-.847-2.697-.505a2.444 2.444 0 0 0-1.3 1.194 3.365 3.365 0 0 0-.35 1.274c-.033.567-.062 1.136-.021 1.703.029.774.208 1.57.663 2.211.248.33.574.61.956.773.41.184.862.235 1.305.257.43-.024.87-.058 1.274-.224.425-.167.796-.445 1.122-.76a.62.62 0 0 1 .171-.121c.264.247.548.471.826.702-.082.179-.254.287-.393.417-.495.44-1.086.78-1.734.936-.553.145-1.132.155-1.7.133-.87-.042-1.751-.334-2.399-.931-.72-.662-1.091-1.617-1.24-2.566a8.971 8.971 0 0 1-.007-2.663c.14-.863.439-1.726 1.018-2.396.656-.79 1.696-1.206 2.713-1.184.873-.028 1.775.227 2.45.794zM50.452.011c.022 1.788 0 3.576.011 5.364a.875.875 0 0 0 .262-.206c.648-.62 1.558-.941 2.452-.915.957-.026 1.962.299 2.612 1.025.498.544.753 1.269.83 1.993l.02.45v6.146c-.351.037-.706.005-1.059.019-.059-.007-.185.021-.181-.071-.008-2.021 0-4.043-.004-6.064-.037-.46-.127-.93-.36-1.335a2.029 2.029 0 0 0-1.286-.965 3.137 3.137 0 0 0-1.805.07 2.07 2.07 0 0 0-1.082.876c-.32.52-.411 1.146-.401 1.746v4.23c-.005.5.011 1.002-.01 1.502-.407.015-.816.01-1.225.003-.016-.693-.012-1.387-.01-2.08v-1.041L49.215.168c.009-.057-.018-.17.076-.162.386-.006.774-.012 1.162.005zm23.425 1.394c.067-.012.118.047.108.112.009.944-.012 1.89.01 2.832l.055.057c.573.021 1.148-.01 1.72.015.017.305.01.611.004.917-.531.035-1.066 0-1.599.015-.064.004-.126.018-.188.031v5.636c-.006.427-.009.89.232 1.263.175.284.494.459.822.494.315.06.636.012.952.046.006.329.008.657.002.985-.001.105-.132.07-.199.078-.38-.01-.76.018-1.138-.026-.468-.074-.928-.278-1.253-.63-.447-.455-.64-1.102-.66-1.728-.002-1.845 0-3.69-.001-5.535-.002-.2.01-.4-.013-.6-.404-.038-.81.005-1.213-.025-.048-.194-.012-.397-.022-.596.007-.108-.028-.23.03-.329.393-.011.787-.004 1.18-.002.072-.203.027-.42.038-.63.009-.791-.017-1.583.014-2.372.372-.017.746-.008 1.119-.008zm-4.78.005c.031.82.004 1.643.013 2.465.011.166-.034.343.032.502.077.064.187.026.28.036.483.007.97-.018 1.45.011a4.7 4.7 0 0 1 .043.056c-.023.288.018.578-.02.865-.588.03-1.178-.026-1.765.029-.044.47-.009.945-.02 1.417v4.491c.018.308.037.628.184.906.164.323.5.548.86.587.316.062.639.02.958.043.02.272.006.544.012.817-.006.08.01.166-.027.24-.295.024-.593.003-.888.01a2.368 2.368 0 0 1-1.33-.365c-.543-.355-.874-.97-.96-1.604-.068-.31-.043-.625-.047-.939-.001-1.844.004-3.688-.002-5.532.018-.09-.092-.084-.15-.09-.36-.01-.721.003-1.082-.005a7.364 7.364 0 0 1 .002-.937c.396 0 .792-.006 1.188.005.063-.128.042-.273.045-.411V1.516c-.013-.065.037-.121.105-.11a30.91 30.91 0 0 1 1.119.004zM23.624.003c.07-.005.112.056.098.122 0 1.741.004 3.483-.002 5.224a7.32 7.32 0 0 0 .097-.013 3.33 3.33 0 0 1 1.867-1.02c.354-.082.72-.063 1.08-.058.811.048 1.635.346 2.206.94.496.494.77 1.17.88 1.852.05.402.046.808.044 1.213v.406c-.004 1.735.009 3.47-.007 5.205-.409.017-.82.015-1.228.003-.023-2.055.001-4.11-.013-6.166-.04-.574-.193-1.17-.578-1.615-.403-.48-1.037-.71-1.65-.735-.645-.041-1.332.094-1.84.511-.487.393-.756 1.004-.82 1.617a3.557 3.557 0 0 0-.036.5v.503c0 1.76.002 3.519 0 5.278.017.074-.03.117-.1.113-.32.006-.64-.002-.96.003-.083 0-.225.008-.19-.117-.002-4.518 0-9.036-.001-13.555 0-.069.007-.138.014-.207.38-.009.76-.006 1.14-.004z"/>
</svg>
