<svg xmlns="http://www.w3.org/2000/svg" width="56" height="28" viewBox="0 0 56 28">
    <g fill="none" fill-rule="evenodd">
        <path d="M-34-4H95v36H-34z"/>
        <path fill="#071638" fill-rule="nonzero" d="M0 0v27.636h28.23L55.865.003H0zM35.758 24.811v2.061h.311v-.894h.35l.564.894h.35l-.602-.894c.3-.038.544-.213.544-.584 0-.406-.249-.583-.739-.583h-.778zm.311.272h.428c.21 0 .447.035.447.292 0 .322-.24.35-.505.35h-.37v-.642zm.39-1.03c-.987 0-1.828.76-1.828 1.789 0 1.036.84 1.808 1.827 1.808.974 0 1.79-.772 1.79-1.808a1.773 1.773 0 0 0-1.79-1.79zm0 .291c.804 0 1.438.65 1.438 1.498 0 .86-.634 1.497-1.439 1.497-.819 0-1.477-.636-1.477-1.497 0-.847.658-1.498 1.477-1.498z"/>
        <path fill="#FFF" d="M33.474 13.223h-1.211V8.795h1.21c1.617 0 2.904.533 2.904 2.186 0 1.707-1.287 2.242-2.903 2.242M20.44 16.39a5.03 5.03 0 0 1-1.761-.312l1.744-5.5h.037l1.708 5.515c-.514.184-1.1.297-1.726.297m12.71-11.192h-5.499v13.075L22.85 5.197h-4.76L13.984 16.13c-.434-2.756-3.288-3.71-5.531-4.42-1.48-.477-3.054-1.176-3.04-1.95.013-.634.846-1.221 2.49-1.134 1.107.056 2.084.146 4.023 1.084l1.91-3.328c-1.769-.904-4.221-1.472-6.227-1.476h-.013c-2.34 0-4.29.763-5.5 2.012a4.652 4.652 0 0 0-1.315 3.208c-.032 1.685.589 2.881 1.887 3.838 1.1.805 2.501 1.323 3.74 1.711 1.527.471 2.774.883 2.76 1.76-.013.319-.132.618-.363.854-.38.395-.964.542-1.772.56-1.558.03-2.714-.212-4.554-1.3L.782 20.924a12.687 12.687 0 0 0 6.224 1.656h.286c1.93-.038 3.487-.588 4.732-1.589l.202-.176-.55 1.478h4.993l.84-2.55a9.206 9.206 0 0 0 2.933.463 9.209 9.209 0 0 0 2.868-.439l.807 2.526h8.147V17.01h1.778c4.293 0 6.836-2.186 6.836-5.853 0-4.082-2.47-5.954-7.726-5.954"/>
    </g>
</svg>
