<svg xmlns="http://www.w3.org/2000/svg" width="70" height="24" viewBox="0 0 70 24">
    <g fill="none" fill-rule="evenodd">
        <path d="M-29-6h129v36H-29z"/>
        <g fill-rule="nonzero">
            <path fill="#071638" d="M52.497 7.221c2.653 0 4.73 2.115 4.73 4.814 0 1.306-.474 2.507-1.338 3.382a4.518 4.518 0 0 1-3.465 1.33c-1.292-.061-2.377-.693-2.963-1.262l-.062-.06v4.222c0 .122-.1.223-.222.223h-1.192a.22.22 0 0 1-.22-.222v-6.702c0-.913.098-1.829.193-2.188.557-2.115 2.38-3.537 4.539-3.537zm-21.412 0c2.654 0 4.734 2.115 4.734 4.814 0 1.306-.476 2.507-1.34 3.382a4.514 4.514 0 0 1-3.464 1.33c-1.296-.061-2.382-.693-2.967-1.262l-.06-.06.001 4.222c0 .122-.1.223-.222.223h-1.195c-.12 0-.218-.1-.218-.222v-6.702c0-.913.096-1.829.193-2.188.556-2.115 2.38-3.537 4.538-3.537zm10.732 0c2.036 0 3.77 1.319 4.418 3.362.085.27.147.55.184.834.02.156.036.302.042.392v.02c.014.198.022.308-.183.44-.004.004-.58.41-2.032.69-.369.052-.73.079-1.098.079-.597 0-1.108-.068-1.602-.133-.267-.034-.52-.067-.772-.087a3.72 3.72 0 0 0-.329-.014c-.88 0-1.473.277-1.539.31l-.027.012.01.031c.37 1.165 1.65 2.014 2.919 2.014a3.012 3.012 0 0 0 2.317-1.071c.06-.074.123-.108.19-.108.053 0 .112.02.195.062l.18.089c.272.13.772.372.912.472a.24.24 0 0 1 .105.163.276.276 0 0 1-.061.201c-.835 1.033-1.95 1.564-3.217 1.725-.211.026-.42.04-.621.04-2.38 0-4.335-1.665-4.649-4.095-.345-2.685 1.428-5.05 4.038-5.386.207-.029.417-.042.62-.042zm20.14 0c1.33.004 2.274.322 3.254 1.1a.34.34 0 0 1 .123.222.248.248 0 0 1-.081.19 8.716 8.716 0 0 1-.82.707.366.366 0 0 1-.217.079.388.388 0 0 1-.235-.097c-.733-.572-1.306-.688-1.993-.688-.818 0-1.689.423-1.689 1.208 0 .712.953 1.03 1.246 1.11.417.115.875.203 1.318.288l.545.106c.546.115 2.331.632 2.331 2.524 0 1.367-1.134 2.756-3.674 2.772h-.047c-1.471 0-2.605-.542-3.642-1.492a.28.28 0 0 1-.095-.184c-.001-.046.017-.09.057-.133.085-.09.886-.723.958-.781a.295.295 0 0 1 .176-.075c.08 0 .138.054.187.099l.01.01c.693.629 1.52.996 2.46.996 1.151 0 1.852-.592 1.866-1.163.015-.586-.428-1.005-1.216-1.15l-1.2-.23c-1.914-.375-2.97-1.288-2.97-2.573 0-1.621 1.436-2.845 3.339-2.845zm7.023.315c.121 0 .221.098.221.22v8.542c0 .121-.1.22-.22.22h-1.202c-.12 0-.219-.099-.219-.22V7.756a.22.22 0 0 1 .219-.22zM52.477 8.844c-1.674 0-3.036 1.455-3.036 3.244 0 .883.326 1.683.92 2.249.574.55 1.36.855 2.208.855 1.68 0 2.945-1.357 2.945-3.157 0-1.79-1.334-3.191-3.037-3.191zm-21.41 0c-1.675 0-3.038 1.455-3.038 3.244 0 .883.327 1.683.921 2.249.575.55 1.357.855 2.207.855 1.68 0 2.946-1.357 2.946-3.157 0-1.79-1.334-3.191-3.035-3.191zm10.75-.022c-.135 0-.27.008-.401.024-1.425.189-2.602 1.385-2.737 2.786l-.006.056s.55-.219 1.25-.306c.234-.03.479-.046.746-.046.374 0 .763.03 1.175.06l.016.001c.444.035.903.069 1.327.069.253 0 .468-.013.662-.038a5.5 5.5 0 0 0 .973-.194l.035-.009-.01-.035c-.386-1.351-1.688-2.368-3.03-2.368zM68.381 4.49a1.085 1.085 0 1 1-.001 2.168 1.085 1.085 0 0 1 0-2.168z"/>
            <path fill="#FFF" stroke="#071638" stroke-width=".5" d="M19.692 19.696c-4.264 4.265-11.18 4.265-15.445 0-4.266-4.266-4.266-11.181 0-15.446 4.265-4.265 11.18-4.265 15.444 0 4.266 4.264 4.266 11.18.001 15.446"/>
            <path fill="#071638" d="M20.472 6.462c.204.663.316 1.366.316 2.095 0 2.353-1.157 4.422-2.916 5.719-3.06 2.253-7.52 2.256-13.677 4.197a10.111 10.111 0 0 0 7.774 3.635c5.598 0 10.135-4.537 10.135-10.135 0-2.032-.601-3.923-1.632-5.511"/>
            <path fill="#071638" d="M18.047 3.864a10.08 10.08 0 0 0-6.077-2.026c-5.598 0-10.135 4.539-10.135 10.135 0 2.253.735 4.334 1.978 6.016A21.04 21.04 0 0 0 18.047 3.864"/>
        </g>
    </g>
</svg>
