<svg xmlns="http://www.w3.org/2000/svg" width="129" height="17" viewBox="0 0 129 17">
    <g fill="none" fill-rule="evenodd">
        <path d="M0-11h129v36H0z"/>
        <path fill="#071638" fill-rule="nonzero" d="M9.67 1.756C9.67.351 8.338 0 7.287 0v.21c.631 0 1.121.211 1.121.703 0 .281-.21.703-.84.703-.49 0-1.542-.281-2.313-.562C4.345.702 3.504.42 2.803.42 1.4.421.42 1.475.42 2.67c0 1.054.771 1.405 1.051 1.546l.07-.14c-.14-.141-.35-.282-.35-.703 0-.281.28-.773.981-.773.63 0 1.472.281 2.593.632.98.281 2.032.492 2.592.562v2.178l-1.05.913v.07l1.05.914v3.02c-.56.352-1.19.422-1.751.422-1.051 0-1.962-.281-2.733-1.124l2.873-1.405V3.934L2.242 5.479c.28-.913 1.051-1.545 1.822-1.967l-.07-.21C1.892 3.864 0 5.83 0 8.219c0 2.81 2.312 4.917 4.905 4.917 2.803 0 4.625-2.248 4.625-4.566h-.14c-.421.913-1.052 1.756-1.822 2.178v-2.88l1.12-.913v-.07l-1.12-.914V3.793c1.05 0 2.102-.702 2.102-2.037zM3.574 9.483l-.841.422c-.49-.632-.771-1.475-.771-2.67 0-.491 0-1.053.14-1.475l1.472-.632v4.355zM11 11.1l-.91.703.14.14.42-.351 1.541 1.405 2.102-1.405-.07-.14-.56.35-.7-.702V6.322l.56-.421 1.19.983v4.285c0 2.67-.56 3.091-1.75 3.513v.21c1.961.07 3.783-.561 3.783-4.004V6.252l.63-.492-.14-.14-.56.421-1.752-1.475-1.962 1.475V.281h-.14L10.37 1.967v.14c.28.14.701.281.701 1.054l-.07 7.938zm12.823-.773l-1.752 1.335-1.752-1.405v-.843l3.294-2.248v-.07l-1.682-2.529-3.644 1.967v4.636l-.7.562.14.14.63-.49 2.383 1.755 3.153-2.529-.07-.28zM20.32 9.132V5.69l.14-.07 1.542 2.459-1.682 1.053zm16.887-8.008c0-.21-.07-.422-.14-.632h-.14c-.21.562-.49.843-1.191.843-.63 0-1.051-.352-1.331-.633l-2.032 2.319.14.14.7-.632c.42.351.771.632 1.752.702v5.831l-4.134-7.095c-.35-.562-.84-1.335-1.822-1.335-1.12 0-2.102.984-1.962 2.53h.21c.07-.422.28-.914.771-.914.35 0 .701.351.911.702V5.27c-1.261 0-2.102.562-2.102 1.615 0 .562.28 1.405 1.121 1.616v-.14a.638.638 0 0 1-.21-.492c0-.351.28-.632.77-.632h.351v2.95c-1.471 0-2.663.843-2.663 2.248 0 1.335 1.122 1.967 2.383 1.897v-.14c-.771-.071-1.121-.422-1.121-.914 0-.632.42-.913.98-.913.561 0 1.052.35 1.402.772l2.032-2.248-.14-.14-.49.562c-.771-.703-1.192-.913-2.103-1.054V3.231l5.606 9.835h.42V3.231c1.052-.07 2.032-.913 2.032-2.107zm5.116 9.202l-1.752 1.335-1.752-1.405v-.843l3.293-2.248v-.07l-1.681-2.529-3.644 1.967v4.636l-.7.562.14.14.63-.49 2.383 1.755 3.153-2.529-.07-.28zm-3.504-1.194V5.69l.14-.07 1.542 2.459-1.682 1.053zM53.744 5.34l-.49.351-1.332-1.124-1.541 1.405.63.632v5.269l-1.681-1.054V6.463l.56-.351-1.611-1.546-1.542 1.405.63.632v5.058l-.21.14-1.471-1.053V6.533c0-.983-.49-1.264-1.051-1.616-.49-.35-.77-.562-.77-1.053 0-.422.42-.633.63-.773v-.14c-.56 0-2.032.561-2.032 1.896 0 .703.35.984.7 1.335s.701.632.701 1.264v4.075l-.77.562.14.14.7-.562 1.612 1.405 1.752-1.194 1.962 1.194 3.713-2.178V6.182l.911-.703-.14-.14zm13.033-3.864l-.7.632L64.535.702l-2.312 1.686V.843h-.21l.07 11.38c-.21 0-.841-.14-1.332-.28l-.14-9.484c0-.703-.49-1.686-1.752-1.686-1.261 0-2.102.983-2.102 1.967h.21c.07-.422.28-.773.701-.773.42 0 .77.28.77 1.194v2.74c-1.26.07-2.031.773-2.031 1.686 0 .562.28 1.405 1.121 1.405v-.14c-.28-.141-.35-.352-.35-.492 0-.422.35-.562.91-.562h.28v4.355c-1.05.351-1.47 1.124-1.47 1.967 0 1.194.91 2.037 2.312 2.037.98 0 1.822-.14 2.662-.351.701-.14 1.612-.351 2.032-.351.561 0 .771.28.771.632 0 .492-.21.702-.49.773V17c1.12-.21 1.822-.913 1.822-1.967s-1.052-1.686-2.173-1.686c-.56 0-1.751.21-2.592.351-.981.211-1.962.352-2.243.352-.49 0-1.05-.211-1.05-.914 0-.562.49-1.053 1.681-1.053.63 0 1.402.07 2.172.28.841.211 1.612.422 2.313.422 1.05 0 1.962-.351 1.962-1.826v-8.64l.84-.703-.14-.14zM63.904 5.76c-.21.211-.49.422-.84.422s-.701-.21-.841-.422V2.67l.7-.492.981.913v2.67zm0 2.108c-.14-.14-.49-.351-.84-.351s-.701.21-.841.35V6.042c.14.14.49.352.84.352s.701-.211.841-.352v1.827zm0 3.301c0 .562-.35 1.124-1.12 1.124h-.561V8.15c.14-.14.49-.351.84-.351s.631.21.841.35v3.021zm9.6-4.987l-2.242-1.616-3.434 1.967V11.1l-.7.562.07.14.56-.42 2.243 1.685 3.503-2.107V6.182zm-3.784 4.425V5.55l1.752 1.264v4.988l-1.752-1.195zm10.44-5.9h-.14c-.21.14-.42.28-.63.28-.28 0-.63-.14-.77-.35h-.14L77.287 5.97l-1.191-1.335-2.102 1.405.07.14.56-.35.7.772v4.426l-.91.702.14.14.42-.35 1.682 1.405 2.172-1.476-.07-.14-.63.351-.841-.702V6.04c.35.352.77.703 1.261.703.981.07 1.542-.913 1.612-2.037zm8.41 6.743l-2.383 1.616-3.223-4.917 2.312-3.583h.14c.28.281.7.562 1.191.562.49 0 .841-.28 1.051-.562h.14c-.07 1.405-1.05 2.248-1.751 2.248-.701 0-1.051-.351-1.472-.562l-.21.351 3.504 5.199.7-.422v.07zm-7.709-.35l-.91.702.14.14.42-.351 1.542 1.405 2.102-1.405-.14-.14-.56.35-.702-.702V.281h-.07l-2.522 1.686v.14c.28.14.7.211.7 1.054V11.1zm19.34-9.344C100.201.351 98.87 0 97.819 0v.21c.63 0 1.12.211 1.12.703 0 .281-.21.703-.84.703-.49 0-1.542-.281-2.312-.562-.911-.281-1.752-.562-2.453-.562-1.401 0-2.382 1.053-2.382 2.248 0 1.053.77 1.405 1.05 1.545l.07-.14c-.21-.14-.42-.281-.42-.703 0-.28.28-.773.981-.773.631 0 1.472.281 2.593.633.981.28 2.032.491 2.593.562V6.04l-1.051.914v.07l1.05.913v3.02c-.56.352-1.19.422-1.751.422-1.051 0-1.962-.28-2.733-1.124l2.873-1.405V3.934l-3.504 1.545c.35-.913 1.122-1.545 1.822-2.037l-.07-.14c-2.102.562-3.994 2.458-3.994 4.847 0 2.81 2.312 4.917 4.905 4.917 2.803 0 4.625-2.248 4.625-4.566h-.14c-.42.913-1.051 1.756-1.822 2.178v-2.88l1.12-.914v-.07l-1.05-.913V3.793c1.05 0 2.102-.702 2.102-2.037zm-6.096 7.727l-.841.422c-.49-.632-.77-1.475-.77-2.67 0-.491.07-1.053.21-1.475l1.47-.632-.07 4.355zm8.548-8.43h-.07l-1.401 1.195v.07l1.191 1.335h.14l1.402-1.194v-.07l-1.262-1.335zm2.103 10.397l-.561.352-.7-.703V6.252l.7-.492-.14-.14-.49.421-1.262-1.475-2.032 1.405.14.21.49-.35.631.772v4.566l-.91.703.07.14.49-.35 1.542 1.404 2.102-1.405-.07-.21zm11.701-.07l-.49.351-.77-.702V6.252l.7-.562-.14-.14-.56.491-1.613-1.475-2.102 1.475-1.611-1.475-1.962 1.475-1.262-1.475-2.032 1.405.07.21.491-.35.7.772v4.566l-.56.562 1.612 1.335 1.541-1.405-.63-.632V6.252l.63-.421 1.051.983v4.215l-.56.562 1.611 1.335 1.542-1.405-.63-.633V6.252l.56-.351 1.121.983V11.1l-.49.492 1.611 1.475 2.172-1.475v-.21zm6.097-1.054l-1.752 1.335-1.752-1.405v-.843l3.293-2.248v-.07l-1.681-2.529-3.644 1.967v4.777l2.452 1.756 3.154-2.529-.07-.21zm-3.504-1.194V5.69l.14-.07 1.542 2.459-1.682 1.053zm9.88-.632l-1.331-1.054c.91-.772 1.26-1.826 1.26-2.529v-.421h-.14c-.14.351-.42.702-.98.702s-.911-.28-1.262-.702l-3.153 1.756v2.529l1.191.913c-1.19 1.054-1.4 1.756-1.4 2.318 0 .703.35 1.195.91 1.405l.07-.14c-.14-.14-.28-.21-.28-.562 0-.21.28-.562.84-.562.701 0 1.122.492 1.332.702L129 11.03V8.5h-.07zm-.77-2.107c-.491.843-1.542 1.686-2.173 2.107l-.77-.632V5.409c.28.703 1.05 1.265 1.821 1.265.49 0 .77-.07 1.121-.281zm-1.192 5.62c-.35-.773-1.191-1.335-2.032-1.335-.21 0-.77 0-1.331.35.35-.561 1.26-1.545 2.452-2.247l.84.702.071 2.53z"/>
    </g>
</svg>
