<svg xmlns="http://www.w3.org/2000/svg" xmlns:xlink="http://www.w3.org/1999/xlink" width="28" height="32" viewBox="0 0 28 32">
    <defs>
        <path id="a" d="M11.31 8.926v6.92c.16.06.425.135.73.135 1.296 0 1.915-1.19 1.915-3.65 0-2.524-.541-3.567-1.848-3.567-.306 0-.615.072-.798.162m-5.657 6.74V7.18H7.9v9.769c-.86.584-2.015.904-3.393.904-2.228 0-3.358-1.208-3.358-3.595V7.179H3.4v7.178c0 .64.156 1.585 1.187 1.585.458 0 .821-.107 1.066-.276m3.404-7.914c.817-.528 1.807-.802 3.035-.802 2.688 0 4.165 2.04 4.165 5.323 0 3.29-1.434 5.54-3.934 5.54-.462 0-.788-.06-1.013-.127v4.741H9.056V7.752zm11.311 6.99c-.016-.708-.416-1.091-1.406-1.673-1.857-1.09-2.19-1.986-2.194-3.184-.01-1.82 1.54-2.891 3.021-2.935 1.237-.037 2.075.427 2.471.732V9.64c-.47-.482-1.23-.918-2.017-.926-.638-.005-1.302.275-1.325 1.077-.021.819.641 1.143 1.482 1.635 1.88 1.106 2.245 2.1 2.202 3.413-.044 1.44-1.036 3.013-3.26 3.013-.891 0-1.771-.278-2.476-.699V15.08c.575.512 1.434.91 2.153.916h.009c.82 0 1.36-.472 1.34-1.255M0 6.449v8.715c0 2.84 1.05 5.21 3.045 6.835 1.76 1.435 7.181 3.887 8.71 4.563 1.508-.665 6.915-3.087 8.707-4.563 2.008-1.653 3.047-3.969 3.047-6.835V.247A53.444 53.444 0 0 0 18.558 0C12.285 0 5.56 1.348 0 6.448"/>
    </defs>
    <g fill="none" fill-rule="evenodd">
        <path d="M-51-2H78v36H-51z"/>
        <path fill-rule="nonzero" stroke="#071638" stroke-width=".5" d="M13.565.316c-5.18 0-9.45.985-13.213 2.98v15.4c0 3.29 1.237 6.043 3.579 7.963 2.11 1.73 8.868 4.695 9.634 5.027.766-.333 7.523-3.297 9.635-5.027 2.341-1.92 3.579-4.674 3.579-7.963v-15.4C23.015 1.301 18.745.316 13.565.316"/>
        <path fill="#071638" fill-rule="nonzero" d="M21.828 29.644v1.322h.238v-.552h.034l.36.552h.289l-.398-.583c.174-.04.292-.167.292-.35 0-.189-.115-.39-.44-.39h-.375zm.347.193c.203 0 .23.1.23.185 0 .125-.054.208-.31.208h-.028v-.393h.108zm.934.472a.895.895 0 1 1-1.79-.005.895.895 0 0 1 1.79.005m-.897-1.089A1.087 1.087 0 1 0 23.3 30.31c0-.599-.486-1.089-1.088-1.089"/>
        <g transform="translate(1.81 3.532)">
            <mask id="b" fill="#fff">
                <use xlink:href="#a"/>
            </mask>
            <path fill="#071638" fill-rule="nonzero" d="M0 0h23.509v26.562H0z" mask="url(#b)"/>
        </g>
    </g>
</svg>
