<svg xmlns="http://www.w3.org/2000/svg" xmlns:xlink="http://www.w3.org/1999/xlink" width="1440" height="964" viewBox="0 0 1440 964">
    <defs>
        <path id="a" d="M0 0h1440v964H0z"/>
        <path id="c" d="M642.881 23.398L.088 890.18l2907.387 3858.547c3.163 4.16 6.742 7.82 10.904 10.982 24.973 19.134 60.767 14.475 79.912-10.566l634.053-827.015c15.566-20.3 15.65-48.585.25-68.967L734.198 22.899c-3.247-4.326-7.242-8.153-11.57-11.398C712.471 3.931 700.567.353 688.663.353c-17.314 0-34.545 7.987-45.783 23.045z"/>
        <path id="e" d="M642.881 23.398L.088 890.18l2907.387 3858.547c3.163 4.16 6.742 7.82 10.904 10.982 24.973 19.134 60.767 14.475 79.912-10.566l634.053-827.015c15.566-20.3 15.65-48.585.25-68.967L734.198 22.899c-3.247-4.326-7.242-8.153-11.57-11.398C712.471 3.931 700.567.353 688.663.353c-17.314 0-34.545 7.987-45.783 23.045z"/>
    </defs>
    <g fill="none" fill-rule="evenodd">
        <mask id="b" fill="#fff">
            <use xlink:href="#a"/>
        </mask>
        <g mask="url(#b)" opacity=".718">
            <g opacity=".297" transform="translate(-2859.859 -2468)">
                <mask id="d" fill="#fff">
                    <use xlink:href="#c"/>
                </mask>
                <path fill="#223E7F" d="M-368.623 619.58l1100.79-829.013 3284.887 4356.621-1100.79 829.013z" mask="url(#d)"/>
            </g>
            <g opacity=".3" transform="matrix(-1 0 0 1 3050.527 -2468)">
                <mask id="f" fill="#fff">
                    <use xlink:href="#e"/>
                </mask>
                <path fill="#223E7F" d="M-368.623 619.58l1100.79-829.013 3284.887 4356.621-1100.79 829.013z" mask="url(#f)"/>
            </g>
        </g>
    </g>
</svg>
