<svg xmlns="http://www.w3.org/2000/svg" xmlns:xlink="http://www.w3.org/1999/xlink" width="103" height="54" viewBox="0 0 103 54">
    <defs>
        <path id="a" d="M22.48.36a.593.593 0 0 0-.125.128L.38 30.297l7.356 9.575c.215.278.612.33.89.117a.588.588 0 0 0 .124-.127l21.692-29.425a.632.632 0 0 0-.008-.762L23.368.478a.635.635 0 0 0-.503-.248.628.628 0 0 0-.386.13z"/>
        <path id="c" d="M32.215.27a.611.611 0 0 0-.123.123L.237 43.047l7.005 9.646a.634.634 0 0 0 .886.14.619.619 0 0 0 .134-.132l31.912-42.35a.633.633 0 0 0-.003-.767L33.104.386a.633.633 0 0 0-.89-.116z"/>
        <path id="e" d="M7.23.639L.16 9.842a.632.632 0 0 0 0 .77l12.723 16.649a.634.634 0 0 0 1.007 0l7.071-9.2a.635.635 0 0 0 0-.774L8.239.64a.632.632 0 0 0-.504-.25.633.633 0 0 0-.503.249z"/>
        <path id="g" d="M7.29.487L.15 10.12l22.004 29.694a.636.636 0 0 0 1.019.002l6.822-9.155a.633.633 0 0 0 .001-.755L8.31.488A.63.63 0 0 0 7.8.23a.632.632 0 0 0-.51.256z"/>
        <path id="i" d="M7.562.666l-7.167 9.64 32.197 42.757a.634.634 0 0 0 1.01.005l7.068-9.2a.633.633 0 0 0 .003-.769L8.577.661A.623.623 0 0 0 8.072.41a.633.633 0 0 0-.51.257z"/>
    </defs>
    <g fill="none" fill-rule="evenodd">
        <g transform="translate(6.238 13.5)">
            <mask id="b" fill="#fff">
                <use xlink:href="#a"/>
            </mask>
            <path fill="#88C0E5" d="M41.426 6.512L21.554-8.462l-31.875 42.3L9.55 48.812z" mask="url(#b)"/>
        </g>
        <g transform="translate(36.838 .45)">
            <mask id="d" fill="#fff">
                <use xlink:href="#c"/>
            </mask>
            <path fill="#D0E9F8" d="M50.855 6.19L31.29-8.554-10.5 46.903 9.065 61.646z" mask="url(#d)"/>
        </g>
        <g transform="translate(.838 26.1)">
            <mask id="f" fill="#fff">
                <use xlink:href="#e"/>
            </mask>
            <path fill="#6B9FD0" d="M-10.525 6.445L9.159-8.387l22.487 29.842-19.684 14.834z" mask="url(#f)"/>
        </g>
        <g transform="translate(21.538 13.5)">
            <mask id="h" fill="#fff">
                <use xlink:href="#g"/>
            </mask>
            <path fill="#A6CDE9" d="M-10.585 6.38L9.111-8.463l31.937 42.384-19.695 14.84z" mask="url(#h)"/>
        </g>
        <g transform="translate(61.588)">
            <mask id="j" fill="#fff">
                <use xlink:href="#i"/>
            </mask>
            <path fill="#FEFEFE" d="M-10.111 6.406L9.456-8.338l41.9 55.6-19.568 14.746z" mask="url(#j)"/>
        </g>
    </g>
</svg>
