<svg xmlns="http://www.w3.org/2000/svg" xmlns:xlink="http://www.w3.org/1999/xlink" width="308" height="41" viewBox="0 0 308 41">
    <defs>
        <path id="a" d="M16.802.401a.494.494 0 0 0-.094.097L.018 23.132l5.551 7.243c.161.21.463.25.673.089a.487.487 0 0 0 .094-.096L22.81 8.023a.479.479 0 0 0-.006-.576L17.475.49a.48.48 0 0 0-.673-.089z"/>
        <path id="c" d="M5.676.379L.342 7.34a.482.482 0 0 0 0 .583l9.664 12.644a.478.478 0 0 0 .762 0l5.333-6.96a.478.478 0 0 0 0-.582L6.438.38a.478.478 0 0 0-.38-.189.48.48 0 0 0-.382.188z"/>
        <path id="e" d="M24.542.222a.488.488 0 0 0-.092.094L.258 32.706 5.542 40a.479.479 0 0 0 .668.108.492.492 0 0 0 .103-.1L30.547 7.85a.479.479 0 0 0-.002-.58L25.214.31a.478.478 0 0 0-.672-.089z"/>
        <path id="g" d="M24.542.222a.488.488 0 0 0-.092.094L.258 32.706 5.542 40a.479.479 0 0 0 .668.108.492.492 0 0 0 .103-.1L30.547 7.85a.479.479 0 0 0-.002-.58L25.214.31a.478.478 0 0 0-.672-.089z"/>
        <path id="i" d="M5.589.497L.204 7.784l16.712 22.548a.48.48 0 0 0 .77 0h-.001l5.146-6.925a.478.478 0 0 0 0-.57L6.362.497a.48.48 0 0 0-.385-.195.48.48 0 0 0-.387.195z"/>
        <path id="k" d="M5.58.531L.174 7.825l24.45 32.466a.479.479 0 0 0 .764.003h-.001l5.332-6.958a.48.48 0 0 0 .002-.58L6.348.527a.475.475 0 0 0-.383-.19.48.48 0 0 0-.385.194z"/>
    </defs>
    <g fill="none" fill-rule="evenodd">
        <g transform="translate(4.55 10.252)">
            <mask id="b" fill="#fff">
                <use xlink:href="#a"/>
            </mask>
            <path fill="#88C0E5" d="M26.271 5.729l-9.487-7.15-20.012 26.558 9.487 7.149z" mask="url(#b)"/>
        </g>
        <g transform="translate(0 20.052)">
            <mask id="d" fill="#fff">
                <use xlink:href="#c"/>
            </mask>
            <path fill="#6B9FD0" d="M-2.893 5.446l9.346-7.043 12.884 17.098-9.346 7.043z" mask="url(#d)"/>
        </g>
        <path fill="#244A9A" d="M57.845 7.72L52.514.762a.478.478 0 0 0-.764.004l-24.192 32.39 5.283 7.296a.48.48 0 0 0 .772.007L57.847 8.3a.48.48 0 0 0-.002-.58"/>
        <g transform="translate(27.3 .452)">
            <mask id="f" fill="#fff">
                <use xlink:href="#e"/>
            </mask>
            <path fill="#244A9A" d="M-102.55 118.65h227.107V-33.702H-102.55z" mask="url(#f)"/>
        </g>
        <g transform="translate(27.3 .452)">
            <mask id="h" fill="#fff">
                <use xlink:href="#g"/>
            </mask>
            <path fill="#D0E9F8" d="M33.78 5.375L24.523-1.6l-27.54 36.547 9.255 6.974z" mask="url(#h)"/>
        </g>
        <g transform="translate(15.75 10.252)">
            <mask id="j" fill="#fff">
                <use xlink:href="#i"/>
            </mask>
            <path fill="#A6CDE9" d="M-3.07 5.628l9.354-7.049 20.06 26.62-9.353 7.05z" mask="url(#j)"/>
        </g>
        <g transform="translate(46.2 .102)">
            <mask id="l" fill="#fff">
                <use xlink:href="#k"/>
            </mask>
            <path fill="#FEFEFE" d="M-2.926 5.548L6.33-1.428 33.954 35.23l-9.257 6.975z" mask="url(#l)"/>
        </g>
        <path fill="#FFF" fill-rule="nonzero" d="M101.044 15.488v2.274H96.22v2.714h4.181v2.275h-4.18v4.697H94v-11.96h7.044zm4.396 0v9.684h5.299v2.276h-7.519v-11.96h2.22zm13.202 9.62h-3.737l-.918 2.34h-2.19l5.084-12.432h.122l5.084 12.432h-2.572l-.873-2.34zm-.735-1.983l-1.087-2.909-1.134 2.909h2.22zm11.762-7.637v2.274h-2.741v9.686h-2.22v-9.686h-2.635v-2.274h7.596zm4.396 0v11.96h-2.22v-11.96h2.22zm9.02 11.96l-2.373-3.803h-1.485v3.803h-2.22v-11.96h3.414c1.399 0 2.484.36 3.254 1.08.771.72 1.157 1.704 1.157 2.95 0 .736-.146 1.427-.437 2.071a3.364 3.364 0 0 1-1.34 1.52l2.619 4.338h-2.588zm-3.858-6.078h1.577c.603 0 1.042-.187 1.317-.56a2 2 0 0 0 .414-1.211 2.4 2.4 0 0 0-.353-1.243c-.234-.396-.689-.594-1.362-.594h-1.593v3.608zm7.244.114c0-1.084.258-2.096.774-3.039a6.041 6.041 0 0 1 2.098-2.25 5.275 5.275 0 0 1 2.871-.838c1.031 0 1.988.28 2.871.837a6.164 6.164 0 0 1 2.114 2.251c.525.943.788 1.955.788 3.039a6.11 6.11 0 0 1-.788 3.055 6.069 6.069 0 0 1-2.114 2.218c-.883.547-1.84.82-2.871.82-1.041 0-2.001-.273-2.879-.82a5.968 5.968 0 0 1-2.09-2.218 6.205 6.205 0 0 1-.774-3.055zm2.297 0c0 .693.156 1.332.468 1.917a3.64 3.64 0 0 0 1.27 1.39c.537.34 1.131.511 1.785.511.633 0 1.21-.17 1.73-.511.52-.342.929-.802 1.225-1.382a4.17 4.17 0 0 0 .444-1.925 4.14 4.14 0 0 0-.46-1.95 3.625 3.625 0 0 0-1.247-1.39 3.153 3.153 0 0 0-1.754-.511c-.643 0-1.227.17-1.753.511a3.625 3.625 0 0 0-1.248 1.39 4.14 4.14 0 0 0-.46 1.95zm21.624-5.997v12.448h-.061l-7.886-7.556.046 7.069h-2.252V15.016h.092l7.871 7.67-.045-7.198h2.235zm8.96 2.893c-.98-.574-1.833-.861-2.557-.861-.49 0-.87.103-1.141.309-.27.205-.406.514-.406.926 0 .379.196.712.59 1 .393.286.916.56 1.57.82.53.206.984.441 1.362.707.378.265.692.63.942 1.097.25.465.375 1.056.375 1.77 0 .618-.15 1.19-.452 1.715-.3.526-.742.943-1.324 1.251-.582.31-1.277.463-2.083.463a6.578 6.578 0 0 1-2.006-.316 6.127 6.127 0 0 1-1.853-.967l.98-1.837c.388.304.832.553 1.332.748.5.195.95.293 1.348.293.47 0 .878-.106 1.225-.317.347-.212.52-.556.52-1.032 0-.618-.546-1.154-1.638-1.609-.643-.27-1.179-.53-1.608-.78a3.387 3.387 0 0 1-1.11-1.073c-.311-.465-.467-1.05-.467-1.755 0-1.029.319-1.857.957-2.486.638-.628 1.488-.97 2.55-1.024.837 0 1.536.1 2.098.301.561.2 1.107.485 1.638.853l-.842 1.804zm7.95-2.892h3.37c1.439 0 2.623.295 3.552.885.929.59 1.605 1.354 2.029 2.291.424.937.635 1.942.635 3.015 0 1.148-.255 2.161-.765 3.039a5.278 5.278 0 0 1-2.06 2.023 5.828 5.828 0 0 1-2.84.707h-3.92v-11.96zm3.538 9.684c1.153 0 2.067-.314 2.74-.942.674-.628 1.011-1.533 1.011-2.714 0-.953-.186-1.711-.559-2.275-.372-.563-.806-.953-1.301-1.17-.495-.216-.962-.325-1.401-.325h-1.807v7.427h1.317zm15.988-9.684v2.274h-5.467v2.552h4.84v2.275h-4.84v2.584h5.681v2.275h-7.901v-11.96h7.687zm11.87 0L213.551 28l-5.145-12.512h2.664l2.573 6.743 2.42-6.744h2.633zm9.663 0v2.274h-5.467v2.552h4.84v2.275h-4.84v2.584h5.682v2.275h-7.902v-11.96h7.687zm4.764 0v9.684h5.298v2.276h-7.518v-11.96h2.22zm6.632 5.996c0-1.084.258-2.096.773-3.039a6.041 6.041 0 0 1 2.098-2.25 5.275 5.275 0 0 1 2.872-.838c1.03 0 1.988.28 2.87.837a6.164 6.164 0 0 1 2.114 2.251c.526.943.789 1.955.789 3.039a6.11 6.11 0 0 1-.789 3.055 6.069 6.069 0 0 1-2.113 2.218c-.883.547-1.84.82-2.871.82a5.34 5.34 0 0 1-2.88-.82 5.968 5.968 0 0 1-2.09-2.218 6.205 6.205 0 0 1-.773-3.055zm2.297 0c0 .693.156 1.332.467 1.917a3.64 3.64 0 0 0 1.271 1.39c.536.34 1.13.511 1.784.511.633 0 1.21-.17 1.73-.511.521-.342.93-.802 1.226-1.382a4.17 4.17 0 0 0 .444-1.925 4.14 4.14 0 0 0-.46-1.95 3.625 3.625 0 0 0-1.248-1.39 3.153 3.153 0 0 0-1.753-.511c-.643 0-1.228.17-1.754.511a3.625 3.625 0 0 0-1.248 1.39 4.14 4.14 0 0 0-.459 1.95zm14.886-5.997c1.378 0 2.445.36 3.2 1.081.756.72 1.134 1.704 1.134 2.95 0 .715-.13 1.383-.39 2.006a3.441 3.441 0 0 1-1.272 1.536c-.587.4-1.345.601-2.274.601h-1.593v3.787h-2.22v-11.96h3.415zm.383 5.883c.418 0 .755-.1 1.01-.3.256-.201.44-.437.552-.707.112-.271.168-.531.168-.78 0-.423-.117-.832-.352-1.227-.235-.396-.69-.594-1.363-.594h-1.593v3.608h1.578zm17.58-6.37v12.448h-2.22v-5.704l-3.675 5.541h-.03l-3.538-5.184v5.347h-2.144V15h.016l5.712 8.596 5.85-8.596h.03zm10.63.488v2.274h-5.467v2.552h4.839v2.275h-4.84v2.584h5.682v2.275h-7.902v-11.96h7.688zm12.696 0v12.447h-.061l-7.887-7.556.046 7.069h-2.251V15.016h.092l7.87 7.67-.045-7.198h2.236zm9.771 0v2.274h-2.741v9.686h-2.22v-9.686h-2.634v-2.274H308z"/>
    </g>
</svg>
